<svg width="7454.003" height="932.059" viewBox="0 0 7454.003 932.059" xmlns="http://www.w3.org/2000/svg"><g id="svgGroup" stroke-linecap="round" fill-rule="evenodd" font-size="9pt" stroke="#ffffff" stroke-width="0.25mm" fill="#ffffff" style="stroke:#ffffff;stroke-width:0.25mm;fill:#ffffff"><path d="M 1541 436.025 L 1541 712.025 L 1627 712.025 L 1627 457.025 C 1627 357.025 1675 294.025 1751 294.025 C 1824 294.025 1861 347.025 1861 434.025 L 1861 712.025 L 1947 712.025 L 1947 419.025 C 1947 294.025 1881 215.025 1768 215.025 C 1675 215.025 1627 269.025 1602 310.025 C 1573 250.025 1521 215.025 1449 215.025 C 1381 215.025 1333 245.025 1306 296.025 L 1306 226.025 L 1221 226.025 L 1221 712.025 L 1307 712.025 L 1307 457.025 C 1307 357.025 1355 294.025 1431 294.025 C 1503 294.025 1541 348.025 1541 436.025 Z M 305 324.025 L 224 293.025 C 152 266.025 118 233.025 118 182.025 C 118 122.025 168 84.025 232 84.025 C 300 84.025 341 131.025 364 191.025 L 445 157.025 C 410 58.025 333 0.025 233 0.025 C 118 0.025 28 72.025 28 187.025 C 28 279.025 84 336.025 188 375.025 L 270 406.025 C 341 433.025 374 468.025 374 524.025 C 374 597.025 314 639.025 243 639.025 C 163 639.025 110 587.025 83 514.025 L 0 544.025 C 35 657.025 121 723.025 240 723.025 C 365 723.025 465 646.025 465 518.025 C 465 426.025 413 365.025 305 324.025 Z M 5069 662.025 L 5069 563.025 C 5000 612.025 4931 637.025 4860 637.025 C 4712 637.025 4596 515.025 4596 362.025 C 4596 207.025 4712 86.025 4860 86.025 C 4931 86.025 5000 111.025 5067 162.025 L 5067 63.025 C 5004 21.025 4935 0.025 4862 0.025 C 4661 0.025 4504 159.025 4504 362.025 C 4504 565.025 4661 723.025 4861 723.025 C 4934 723.025 5004 703.025 5069 662.025 Z M 7053 758.025 L 6985 806.025 C 7030 887.025 7112 932.025 7213 932.025 C 7360 932.025 7454 835.025 7454 684.025 L 7454 226.025 L 7369 226.025 L 7369 299.025 C 7334 246.025 7270 215.025 7201 215.025 C 7069 215.025 6964 323.025 6964 462.025 C 6964 602.025 7069 707.025 7201 707.025 C 7270 707.025 7334 672.025 7369 619.025 L 7369 686.025 C 7369 790.025 7309 854.025 7213 854.025 C 7145 854.025 7088 821.025 7053 758.025 Z M 5544 437.025 L 5544 712.025 L 5630 712.025 L 5630 427.025 C 5630 298.025 5559 215.025 5434 215.025 C 5361 215.025 5310 248.025 5279 296.025 L 5279 12.025 L 5193 12.025 L 5193 712.025 L 5279 712.025 L 5279 458.025 C 5279 358.025 5332 295.025 5416 295.025 C 5500 295.025 5544 349.025 5544 437.025 Z M 3077 437.025 L 3077 712.025 L 3163 712.025 L 3163 427.025 C 3163 298.025 3092 215.025 2967 215.025 C 2894 215.025 2843 248.025 2812 296.025 L 2812 226.025 L 2726 226.025 L 2726 712.025 L 2812 712.025 L 2812 458.025 C 2812 358.025 2865 295.025 2949 295.025 C 3033 295.025 3077 349.025 3077 437.025 Z M 6760 437.025 L 6760 712.025 L 6846 712.025 L 6846 427.025 C 6846 298.025 6775 215.025 6650 215.025 C 6577 215.025 6526 248.025 6495 296.025 L 6495 226.025 L 6409 226.025 L 6409 712.025 L 6495 712.025 L 6495 458.025 C 6495 358.025 6548 295.025 6632 295.025 C 6716 295.025 6760 349.025 6760 437.025 Z M 3330 80.025 L 3330 226.025 L 3255 226.025 L 3255 303.025 L 3330 303.025 L 3330 572.025 C 3330 667.025 3385 723.025 3477 723.025 C 3510 723.025 3535 717.025 3552 708.025 L 3552 628.025 C 3537 639.025 3516 643.025 3497 643.025 C 3441 643.025 3416 617.025 3416 560.025 L 3416 303.025 L 3552 303.025 L 3552 226.025 L 3416 226.025 L 3416 80.025 L 3330 80.025 Z M 976 226.025 L 976 300.025 C 940 245.025 876 215.025 804 215.025 C 665 215.025 560 326.025 560 469.025 C 560 613.025 665 723.025 804 723.025 C 876 723.025 941 689.025 976 634.025 L 976 712.025 L 1061 712.025 L 1061 226.025 L 976 226.025 Z M 2481 226.025 L 2481 300.025 C 2445 245.025 2381 215.025 2309 215.025 C 2170 215.025 2065 326.025 2065 469.025 C 2065 613.025 2170 723.025 2309 723.025 C 2381 723.025 2446 689.025 2481 634.025 L 2481 712.025 L 2566 712.025 L 2566 226.025 L 2481 226.025 Z M 4042 226.025 L 4042 300.025 C 4006 245.025 3942 215.025 3870 215.025 C 3731 215.025 3626 326.025 3626 469.025 C 3626 613.025 3731 723.025 3870 723.025 C 3942 723.025 4007 689.025 4042 634.025 L 4042 712.025 L 4127 712.025 L 4127 226.025 L 4042 226.025 Z M 6164 226.025 L 6164 300.025 C 6128 245.025 6064 215.025 5992 215.025 C 5853 215.025 5748 326.025 5748 469.025 C 5748 613.025 5853 723.025 5992 723.025 C 6064 723.025 6129 689.025 6164 634.025 L 6164 712.025 L 6249 712.025 L 6249 226.025 L 6164 226.025 Z M 981 469.025 C 981 568.025 910 644.025 814 644.025 C 718 644.025 647 568.025 647 469.025 C 647 370.025 718 294.025 814 294.025 C 910 294.025 981 370.025 981 469.025 Z M 2486 469.025 C 2486 568.025 2415 644.025 2319 644.025 C 2223 644.025 2152 568.025 2152 469.025 C 2152 370.025 2223 294.025 2319 294.025 C 2415 294.025 2486 370.025 2486 469.025 Z M 4047 469.025 C 4047 568.025 3976 644.025 3880 644.025 C 3784 644.025 3713 568.025 3713 469.025 C 3713 370.025 3784 294.025 3880 294.025 C 3976 294.025 4047 370.025 4047 469.025 Z M 6169 469.025 C 6169 568.025 6098 644.025 6002 644.025 C 5906 644.025 5835 568.025 5835 469.025 C 5835 370.025 5906 294.025 6002 294.025 C 6098 294.025 6169 370.025 6169 469.025 Z M 7374 462.025 C 7374 556.025 7304 630.025 7212 630.025 C 7120 630.025 7051 556.025 7051 462.025 C 7051 368.025 7120 294.025 7212 294.025 C 7304 294.025 7374 368.025 7374 462.025 Z" vector-effect="non-scaling-stroke"/></g></svg>